<?xml version="1.0" standalone="no"?>
<!DOCTYPE svg PUBLIC "-//W3C//DTD SVG 20010904//EN"
 "http://www.w3.org/TR/2001/REC-SVG-20010904/DTD/svg10.dtd">
<svg version="1.0" xmlns="http://www.w3.org/2000/svg"
 width="1200.000000pt" height="1200.000000pt" viewBox="0 0 1200.000000 1200.000000"
 preserveAspectRatio="xMidYMid meet">

<g transform="translate(0.000000,1200.000000) scale(0.100000,-0.100000)"
fill="#000000" stroke="none">
<path d="M6553 11205 c19 -60 81 -358 111 -526 118 -664 162 -1477 116 -2164
l-9 -130 92 -86 c90 -85 92 -86 99 -60 3 14 89 487 189 1050 179 1005 182
1024 165 1055 -25 47 -223 308 -311 411 -185 217 -466 496 -452 450z"/>
<path d="M5339 11078 c-213 -211 -410 -441 -563 -661 l-67 -97 185 -1043 c103
-573 188 -1045 189 -1050 1 -4 44 34 94 85 l93 93 -11 180 c-15 249 -6 1036
15 1275 39 446 90 785 171 1150 19 85 38 165 41 178 4 12 2 22 -3 22 -5 0 -70
-60 -144 -132z"/>
<path d="M7304 9026 l-220 -976 29 -43 c31 -46 108 -197 126 -248 6 -18 13
-30 14 -28 2 2 160 260 352 573 l348 568 -13 67 c-22 116 -97 366 -156 518
-53 140 -215 487 -246 526 -12 16 -39 -95 -234 -957z"/>
<path d="M4423 9814 c-138 -279 -231 -529 -300 -805 l-36 -146 359 -586 c197
-322 362 -586 365 -587 3 0 13 26 23 58 10 31 42 109 72 172 l55 115 -221 974
c-121 536 -222 976 -224 979 -3 2 -45 -76 -93 -174z"/>
<path d="M5925 8566 c-137 -41 -194 -64 -316 -128 -348 -181 -589 -505 -669
-897 -19 -93 -20 -137 -20 -689 l0 -590 101 -108 c366 -394 825 -730 1147
-839 l74 -24 -6 177 c-4 97 -11 371 -17 609 -11 489 -14 506 -82 580 -53 58
-98 83 -260 148 -193 77 -254 110 -316 174 -87 87 -133 199 -147 357 l-7 74
79 0 c109 0 230 -16 351 -46 236 -58 388 -152 484 -298 59 -89 76 -157 84
-334 l8 -153 40 -28 41 -28 48 29 c26 16 48 33 48 36 1 4 5 81 9 173 8 143 12
176 38 250 35 102 86 181 159 248 52 48 169 113 225 126 24 6 27 3 32 -32 10
-60 8 -204 -4 -268 -19 -103 -61 -170 -150 -239 -71 -55 -122 -129 -155 -226
-25 -70 -27 -97 -55 -649 -16 -317 -29 -597 -29 -623 l0 -47 38 16 c157 65
326 242 431 450 l31 62 0 789 c0 845 -2 878 -52 1032 -118 366 -453 694 -907
889 -64 27 -127 52 -141 55 -14 3 -72 -9 -135 -28z"/>
<path d="M4036 8538 c-25 -107 -33 -492 -15 -691 12 -140 54 -400 68 -425 5
-9 157 -83 338 -163 l328 -147 5 196 6 197 -363 528 c-296 432 -363 524 -367
505z"/>
<path d="M7653 8052 l-353 -513 10 -67 c5 -37 10 -129 10 -204 0 -76 2 -138 5
-138 3 0 146 63 318 139 l312 140 22 113 c44 220 56 389 49 678 -3 146 -10
287 -14 315 l-7 50 -352 -513z"/>
<path d="M4173 7119 c94 -259 217 -493 360 -687 58 -77 62 -81 71 -60 5 13 42
92 83 177 l73 154 0 136 0 136 -292 112 c-161 62 -301 116 -311 119 -15 5 -13
-7 16 -87z"/>
<path d="M7605 7101 l-280 -108 -3 -179 -2 -179 61 -137 c35 -76 65 -138 69
-138 12 0 129 168 199 286 38 64 94 171 124 238 60 131 131 326 119 326 -4 -1
-133 -49 -287 -109z"/>
<path d="M4920 5986 l0 -158 52 -87 c333 -556 749 -1009 1088 -1185 91 -47
207 -90 277 -101 l42 -7 -38 84 c-69 147 -101 324 -101 563 l0 113 -82 28
c-322 107 -686 360 -1080 751 l-158 156 0 -157z"/>
<path d="M7107 5576 c-92 -139 -265 -286 -396 -337 -61 -24 -61 -24 -61 -64
-1 -103 -21 -387 -35 -470 -13 -80 -37 -174 -60 -227 -12 -29 25 -22 113 22
185 93 321 309 408 647 36 142 77 401 72 454 l-3 33 -38 -58z"/>
<path d="M2110 4885 l0 -55 1475 0 1475 0 0 55 0 55 -1475 0 -1475 0 0 -55z"/>
<path d="M7400 4885 l0 -55 1245 0 1245 0 0 55 0 55 -1245 0 -1245 0 0 -55z"/>
<path d="M5641 4236 l-123 -123 30 -34 31 -34 144 72 c133 66 146 75 152 103
6 27 2 37 -26 67 -19 19 -46 43 -60 53 l-25 19 -123 -123z"/>
<path d="M8450 4269 c-25 -4 -60 -11 -77 -14 -31 -6 -33 -8 -33 -48 0 -40 2
-44 35 -56 l35 -12 0 -489 0 -488 31 -26 c35 -30 53 -31 164 -8 l80 17 3 40
c3 38 0 42 -33 58 l-35 17 0 485 0 486 -25 24 c-26 27 -61 30 -145 14z"/>
<path d="M4210 4156 c0 -43 0 -43 53 -63 l52 -20 3 -410 2 -409 -55 -18 -55
-17 0 -45 0 -44 225 0 225 0 0 49 0 50 -55 17 -55 18 0 178 0 178 175 0 175 0
-2 -177 -3 -176 -50 -17 -50 -17 -3 -51 -3 -52 220 0 221 0 0 44 c0 44 0 44
-50 62 l-50 18 2 409 3 409 45 18 c43 17 45 19 48 64 l3 46 -220 0 -221 0 0
-49 0 -48 53 -20 52 -20 3 -162 2 -161 -175 0 -175 0 2 161 3 161 53 20 52 19
0 50 0 49 -225 0 -225 0 0 -44z"/>
<path d="M8921 4023 c-52 -61 -77 -82 -128 -106 -63 -29 -64 -30 -61 -66 l3
-36 58 -3 57 -3 0 -275 c0 -311 1 -316 81 -388 l42 -39 69 7 c37 3 102 11 143
17 l75 11 0 53 0 52 -87 7 c-49 4 -91 13 -95 19 -4 7 -8 130 -8 275 l0 262 85
0 85 0 0 60 0 60 -85 0 -85 0 0 73 0 73 -33 12 c-18 7 -38 12 -43 12 -5 0 -38
-35 -73 -77z"/>
<path d="M2107 3984 c-4 -4 -7 -22 -7 -39 0 -30 4 -33 45 -45 l45 -13 0 -327
0 -328 -45 -18 c-41 -15 -45 -20 -45 -50 l0 -34 316 0 317 0 -7 77 c-3 42 -6
102 -6 135 l0 58 -49 0 -48 0 -7 -62 c-4 -35 -10 -76 -13 -92 l-6 -28 -61 6
c-34 4 -85 9 -113 12 l-53 6 0 317 0 317 56 18 c55 17 55 18 52 54 l-3 37
-181 3 c-99 1 -183 -1 -187 -4z"/>
<path d="M6426 3890 l-66 -70 0 34 c0 26 -8 41 -35 65 -39 34 -30 33 -175 8
l-65 -12 -3 -42 c-3 -39 -1 -42 32 -53 l36 -12 0 -323 0 -323 32 -27 c34 -29
47 -29 213 -2 l70 12 0 45 0 45 -50 17 -50 16 -3 222 -2 221 56 26 56 25 54
-20 54 -20 31 64 c52 106 32 148 -82 168 -35 6 -39 4 -103 -64z"/>
<path d="M5604 3920 c-101 -54 -195 -130 -215 -175 -44 -102 -50 -329 -10
-436 42 -112 140 -187 255 -196 60 -5 93 1 274 53 l52 15 0 48 0 47 -139 -4
c-129 -4 -141 -3 -169 16 -34 25 -71 104 -79 171 l-5 47 158 13 c88 7 183 15
213 18 l54 6 -7 84 c-14 174 -63 266 -162 302 -81 31 -149 28 -220 -9z m124
-113 c26 -24 42 -75 42 -134 0 -47 -1 -48 -95 -58 -33 -4 -71 -9 -84 -12 -22
-6 -23 -4 -17 38 21 139 29 170 50 184 26 19 72 11 104 -18z"/>
<path d="M6920 3914 c-98 -54 -196 -131 -208 -162 -22 -54 -32 -109 -38 -198
-18 -249 81 -422 253 -442 40 -4 48 0 118 52 41 31 77 56 80 56 3 0 5 -13 5
-28 0 -18 11 -38 29 -56 l30 -28 83 11 c133 20 128 17 128 66 0 38 -3 44 -30
55 l-30 12 0 324 0 324 -22 5 c-33 8 -296 45 -316 45 -9 0 -46 -16 -82 -36z
m145 -103 l50 -18 3 -234 2 -235 -58 -28 c-32 -16 -67 -26 -77 -24 -27 5 -62
60 -74 119 -22 103 -9 366 20 421 12 23 67 22 134 -1z"/>
<path d="M7583 3933 l-93 -15 0 -45 c0 -40 3 -46 29 -56 l30 -11 3 -260 c3
-224 6 -267 21 -301 36 -79 102 -124 196 -132 55 -5 57 -4 134 51 43 31 80 56
83 56 2 0 4 -13 4 -28 0 -18 11 -38 29 -56 33 -31 24 -31 179 -5 l62 11 0 42
c0 38 -3 44 -32 57 l-33 14 -3 322 -2 321 -31 27 c-23 18 -39 25 -58 21 -14
-3 -61 -10 -103 -17 l-78 -12 0 -44 c0 -40 3 -46 30 -56 l30 -11 0 -241 0
-241 -55 -27 c-67 -33 -105 -34 -131 -6 -18 20 -19 42 -22 309 l-3 289 -35 30
c-19 17 -40 31 -47 30 -7 -1 -54 -8 -104 -16z"/>
<path d="M9506 3929 c-22 -12 -68 -49 -103 -83 l-63 -62 0 -67 c0 -40 6 -80
14 -96 21 -40 83 -93 167 -141 176 -101 197 -123 179 -190 -18 -66 -37 -70
-166 -34 l-51 14 -19 67 -20 68 -50 3 -51 3 -6 -77 c-4 -42 -7 -105 -7 -139
l0 -62 63 -6 c167 -17 303 -20 328 -7 40 22 150 132 170 172 13 25 19 58 19
98 0 58 -2 63 -44 108 -27 28 -95 78 -168 121 -145 87 -178 114 -178 152 0 52
18 58 117 42 48 -7 91 -17 95 -21 4 -4 8 -25 10 -47 l3 -40 63 -3 62 -3 0 115
c0 136 20 122 -185 131 -129 5 -143 3 -179 -16z"/>
<path d="M2988 3762 c-31 -17 -81 -49 -112 -72 -73 -55 -90 -106 -90 -265 0
-93 3 -118 22 -160 27 -59 64 -100 112 -125 74 -38 125 -36 283 11 l67 20 0
38 0 38 -113 -5 -113 -5 -30 31 c-31 30 -54 89 -54 135 0 27 9 29 185 42 44 3
95 8 114 11 l34 5 -6 80 c-10 151 -71 228 -192 244 -43 6 -57 3 -107 -23z
m105 -104 c11 -14 22 -49 25 -76 5 -56 7 -55 -100 -67 -53 -7 -58 -6 -58 12 0
37 22 138 33 151 18 22 77 10 100 -20z"/>
<path d="M3487 3749 c-25 -16 -60 -46 -77 -65 -25 -29 -30 -43 -30 -88 0 -88
23 -111 228 -237 65 -40 75 -59 58 -110 -11 -32 -14 -34 -52 -32 -23 1 -59 6
-81 12 -38 10 -40 14 -52 66 l-12 55 -45 0 -44 0 0 -109 0 -109 63 -6 c245
-21 238 -23 324 66 57 58 73 90 73 146 0 57 -29 92 -124 152 -191 120 -181
112 -184 149 -2 19 2 37 8 41 6 4 43 2 83 -4 l72 -11 5 -35 c5 -34 7 -35 51
-38 l46 -3 7 38 c3 21 6 61 6 89 0 63 -1 64 -161 64 -112 0 -117 -1 -162 -31z"/>
<path d="M7015 2785 c-44 -8 -86 -14 -92 -14 -8 -1 -13 -17 -13 -44 0 -42 2
-45 40 -60 l40 -15 0 -486 c0 -266 3 -487 8 -489 4 -3 89 -16 189 -28 l182
-23 58 28 c85 41 194 110 225 143 51 53 81 248 59 379 -29 162 -127 269 -269
290 -39 6 -49 2 -110 -38 -37 -25 -80 -53 -96 -63 l-29 -19 7 200 8 201 -32
26 c-36 30 -53 31 -175 12z m384 -494 c55 -55 76 -157 68 -319 -7 -126 -20
-186 -45 -215 -18 -20 -40 -19 -145 10 l-57 16 2 235 3 236 65 27 c79 33 85
34 109 10z"/>
<path d="M3712 2674 l3 -47 55 -16 55 -17 3 -410 2 -411 -60 -18 -60 -18 0
-44 0 -43 431 0 432 0 -7 38 c-3 20 -6 97 -6 170 l0 133 -67 -3 -67 -3 -17
-107 c-8 -60 -18 -110 -21 -113 -5 -5 -208 10 -275 21 l-33 5 0 398 0 399 70
17 70 17 0 49 0 49 -256 0 -255 0 3 -46z"/>
<path d="M9511 2539 c-59 -62 -86 -83 -135 -102 -60 -24 -61 -26 -64 -66 l-3
-41 65 0 66 0 0 -284 0 -283 35 -46 c19 -25 51 -55 71 -68 36 -22 39 -22 154
-10 204 21 190 15 190 76 l0 52 -97 6 c-61 4 -100 11 -105 19 -4 7 -8 131 -8
276 l0 262 95 0 95 0 0 60 0 60 -95 0 -95 0 0 71 0 70 -35 15 c-19 7 -40 13
-47 13 -7 -1 -46 -37 -87 -80z"/>
<path d="M2535 2556 l-70 -11 -3 -37 c-3 -33 -1 -37 27 -43 l31 -7 0 -82 0
-82 -68 4 c-77 5 -105 -6 -223 -84 -86 -57 -100 -88 -107 -241 -5 -123 7 -176
54 -244 28 -41 100 -84 157 -94 34 -7 45 -3 107 39 39 25 72 46 74 46 2 0 6
-13 9 -28 3 -16 17 -36 31 -46 22 -14 36 -15 93 -6 115 17 113 16 113 54 0 29
-5 36 -32 45 l-31 11 6 389 6 389 -23 21 c-25 23 -46 24 -151 7z m-51 -370
l36 -15 0 -181 0 -181 -52 -24 c-29 -14 -61 -25 -70 -25 -22 0 -55 43 -69 89
-15 52 -7 297 11 335 13 27 17 28 61 23 26 -3 63 -13 83 -21z"/>
<path d="M9024 2408 l-74 -71 0 35 c0 23 -7 41 -22 55 -44 39 -57 41 -171 25
l-108 -15 3 -46 c3 -42 6 -46 36 -55 l32 -9 0 -322 0 -323 34 -26 c41 -31 37
-31 194 -10 l122 17 0 48 0 48 -55 12 -55 12 0 227 0 226 61 22 c60 22 61 22
114 3 62 -22 59 -23 100 59 23 45 26 60 19 90 -10 37 -33 50 -117 63 -36 6
-41 3 -113 -65z"/>
<path d="M4914 2431 c-43 -21 -110 -61 -149 -87 -82 -58 -98 -91 -117 -239
-28 -228 47 -398 198 -455 91 -34 119 -28 217 40 l87 60 0 -34 c0 -26 8 -41
32 -61 35 -30 53 -30 206 -4 l62 11 0 42 c0 39 -3 43 -35 55 l-35 12 0 324 0
323 -27 6 c-32 7 -330 46 -347 46 -7 0 -48 -18 -92 -39z m160 -101 l66 -21 0
-233 0 -232 -65 -27 c-36 -15 -74 -27 -85 -27 -28 0 -67 57 -85 125 -26 101
-14 339 20 405 19 37 53 39 149 10z"/>
<path d="M5650 2451 l-105 -16 0 -44 c0 -42 2 -45 35 -56 l35 -12 3 -321 2
-321 35 -27 c38 -29 48 -29 203 -3 l62 11 0 43 c0 41 -2 45 -35 56 l-35 13 0
239 0 238 65 30 c78 37 110 32 137 -22 16 -30 18 -67 18 -306 l0 -272 35 -27
c38 -29 47 -29 203 -3 l62 11 0 42 c0 38 -3 44 -35 59 l-35 17 0 235 0 235 61
30 c74 38 111 34 140 -13 17 -30 19 -53 19 -304 l0 -272 28 -26 c38 -36 57
-39 170 -21 55 9 102 16 106 16 3 0 6 20 6 44 0 42 -2 45 -34 56 l-34 11 -4
257 c-4 267 -6 278 -51 345 -27 40 -104 75 -192 88 l-76 12 -81 -63 c-73 -56
-82 -60 -91 -44 -29 52 -98 86 -203 99 -53 7 -75 -4 -187 -89 l-37 -28 0 35
c0 27 -7 41 -31 61 -17 14 -36 25 -42 25 -7 -1 -59 -9 -117 -18z"/>
<path d="M8103 2430 c-122 -64 -195 -119 -219 -168 -29 -55 -48 -197 -41 -293
16 -201 131 -325 310 -337 56 -3 96 2 177 23 202 51 180 39 180 93 l0 47 -152
-3 c-140 -3 -156 -1 -186 18 -40 25 -79 104 -84 170 l-3 45 210 17 c116 9 218
17 229 17 17 1 18 8 13 89 -7 119 -31 186 -87 243 -52 54 -119 79 -211 79 -48
0 -71 -7 -136 -40z m158 -110 c25 -26 49 -100 49 -150 0 -20 -15 -24 -110 -35
-30 -3 -67 -8 -82 -11 -27 -5 -28 -4 -28 38 1 47 14 117 31 160 18 45 97 44
140 -2z"/>
<path d="M3054 2270 c-96 -49 -168 -112 -184 -160 -6 -19 -14 -78 -17 -130 -9
-159 33 -258 135 -313 72 -39 129 -43 237 -18 175 42 165 37 165 79 l0 38
-124 -4 c-140 -5 -163 3 -195 67 -24 48 -36 121 -19 121 30 0 296 21 327 26
l34 5 -6 73 c-6 80 -36 162 -70 195 -31 28 -86 50 -149 57 -49 5 -60 3 -134
-36z m139 -92 c11 -14 22 -49 25 -76 5 -58 6 -57 -100 -68 l-68 -6 0 39 c0 22
7 63 16 92 l15 52 46 -3 c36 -2 50 -9 66 -30z"/>
<path d="M5925 1166 c-17 -7 -43 -28 -58 -45 -122 -145 36 -351 209 -272 102
46 132 183 59 269 -48 58 -140 78 -210 48z"/>
<path d="M2112 948 l3 -53 1751 -3 1751 -2 -1 55 -1 55 -1753 0 -1753 0 3 -52z"/>
<path d="M6384 945 l-1 -55 1751 2 1751 3 3 53 3 52 -1753 0 -1753 0 -1 -55z"/>
</g>
</svg>
